<?xml version="1.0" encoding="UTF-8" standalone="no"?>
<svg width="24px" height="24px" viewBox="0 0 24 24" version="1.1" xmlns="http://www.w3.org/2000/svg" xmlns:xlink="http://www.w3.org/1999/xlink">
    <!-- Generator: Sketch 46.2 (44496) - http://www.bohemiancoding.com/sketch -->
    <title>ic_twitter</title>
    <desc>Created with Sketch.</desc>
    <defs></defs>
    <g id="For-Dustin" stroke="none" stroke-width="1" fill="none" fill-rule="evenodd">
        <g id="ic_twitter" fill-rule="nonzero" fill="#2C2B2B">
            <g transform="translate(0.000000, 2.000000)" id="Shape">
                <path d="M7.39990483,19.9166663 C16.2794141,19.9166663 21.1361311,12.2535325 21.1361311,5.60809729 C21.1361311,5.39043919 21.1361311,5.17376153 21.1220128,4.95806431 C22.0668432,4.2461761 22.8824366,3.36472798 23.5306055,2.35499108 C22.6495058,2.76168011 21.7148233,3.02838666 20.757759,3.14620769 C21.7655692,2.51772684 22.519847,1.52923544 22.8802196,0.364694023 C21.9325551,0.950464246 20.8957859,1.36328588 19.8146523,1.58534419 C18.3181837,-0.0721964959 15.9403093,-0.477885406 14.0144044,0.595764499 C12.0884996,1.6694144 11.0935275,3.95539161 11.5874114,6.17185138 C7.70570457,5.96914457 4.08912584,4.05931604 1.63773015,0.917663253 C0.356368909,3.21547074 1.01086341,6.1550461 3.13239421,7.63074893 C2.36411166,7.60702963 1.61258004,7.39114185 0.941224222,7.00130523 C0.941224222,7.02189451 0.941224222,7.04346423 0.941224222,7.06503395 C0.941853085,9.458874 2.56177843,11.5206866 4.81436189,11.9946958 C4.10361487,12.1966081 3.35789326,12.2261235 2.6344866,12.0809747 C3.26694026,14.1295324 5.07938669,15.5328987 7.14483307,15.5733087 C5.43532049,16.9728228 3.32351874,17.7325631 1.14923477,17.7302809 C0.765124529,17.7295128 0.381387881,17.705287 0,17.6577282 C2.20776937,19.1335644 4.77663142,19.9163888 7.39990483,19.9127446"></path>
            </g>
        </g>
    </g>
</svg>