<?xml version="1.0" encoding="UTF-8" standalone="no"?>
<svg width="92px" height="64px" viewBox="0 0 92 64" version="1.1" xmlns="http://www.w3.org/2000/svg" xmlns:xlink="http://www.w3.org/1999/xlink">
    <!-- Generator: Sketch 46.2 (44496) - http://www.bohemiancoding.com/sketch -->
    <title>sneaker halo</title>
    <desc>Created with Sketch.</desc>
    <defs>
        <rect id="path-1" x="0" y="0" width="92" height="64"></rect>
    </defs>
    <g id="For-Dustin" stroke="none" stroke-width="1" fill="none" fill-rule="evenodd">
        <g id="Typography" transform="translate(-160.000000, -120.000000)">
            <g id="sneaker-halo" transform="translate(160.000000, 120.000000)">
                <mask id="mask-2" fill="white">
                    <use xlink:href="#path-1"></use>
                </mask>
                <g id="Mask"></g>
                <g mask="url(#mask-2)" stroke="#000000" stroke-width="3">
                    <g transform="translate(1.399902, 2.000000)">
                        <path d="M84.2902,53.8470259 C76.9613043,47.1854697 66.9095478,36.1473718 61.956062,29.7897925 C57.0967754,23.5534236 47.0250766,4.46892795 44.640263,4.30379827 C43.0706539,4.19521037 43.1659881,6.60126225 40.4210773,7.49814986 C36.0311656,8.93261671 31.6743289,8.59803458 28.9140155,7.30466282 C22.1644208,4.14195389 23.0007026,0.930657061 20.3940912,0.117804035 C17.8093677,-0.688132565 14.4241938,2.76247262 11.4466222,6.74702594 C9.28003963,9.64621902 7.12934606,16.4995331 5.20758422,19.5891009 C4.29607278,21.0545187 0.344892812,22.9376888 1.11016033,24.495268 C2.33718249,26.9926167 10.0514682,32.0151527 20.8618447,37.4123862 C28.8639164,41.4076599 46.1519906,52.0650086 54.9799676,55.9672565 C64.2711583,60.0742305 76.9624392,60.9220115 82.6332012,58.8963631 C83.8224464,58.4716945 85.2446766,54.7145187 84.2902,53.8470259 Z" id="Stroke-1"></path>
                        <path d="M5.84369663,18.5011643 C5.84369663,18.5011643 23.2266186,25.1680807 34.3108377,32.6381671 C40.6763394,36.9280807 48.739211,44.3736138 57.4934174,48.9113084 C69.9997046,55.3935562 83.8508845,57.5006455 83.8508845,57.5006455" id="Stroke-3"></path>
                        <path d="M59.9226114,15.5742188 C76.4522277,11.4011928 87.2078959,12.2154986 88.8105801,17.1086974 C90.1694163,21.2575159 83.3009782,27.9078329 71.8101297,34.5353256 C65.3230283,38.2767666 57.3626248,42.0109452 48.5777752,45.2836254 C43.889701,47.0300231 39.3086345,48.5175735 34.95196,49.7350375 C16.6839542,54.839879 2.36242659,55.1933084 0.645762926,49.9522133 C-0.414424428,46.7149798 2.11897877,43.5455892 9.3638896,38.4616699" id="Stroke-5" stroke-linecap="round"></path>
                    </g>
                </g>
            </g>
        </g>
    </g>
</svg>